Coordinates
version=1
nRows=7
nColumns=38
inDegrees=yes

Units are S.I. units (second, meters, Newtons, ...)
Angles are in degrees.

endheader
time	pelvis_tilt	pelvis_list	pelvis_rotation	pelvis_tx	pelvis_ty	pelvis_tz	hip_flexion_r	hip_adduction_r	hip_rotation_r	knee_angle_r	ankle_angle_r	subtalar_angle_r	mtp_angle_r	hip_flexion_l	hip_adduction_l	hip_rotation_l	knee_angle_l	ankle_angle_l	subtalar_angle_l	mtp_angle_l	lumbar_extension	lumbar_bending	lumbar_rotation	arm_flex_r	arm_add_r	arm_rot_r	elbow_flex_r	pro_sup_r	wrist_flex_r	wrist_dev_r	arm_flex_l	arm_add_l	arm_rot_l	elbow_flex_l	pro_sup_l	wrist_flex_l	wrist_dev_l
      3.78000000	     -0.08428943	      1.70627566	      7.77211364	     -0.08594637	      0.89689112	     -0.23006922	     28.02194690	     -1.82338194	    -11.63916797	    -14.76350466	      0.19585090	     -3.05407425	     13.73646842	    -16.08610144	      1.70037911	      6.91611220	    -19.17939016	      9.33728629	      9.39345229	     32.43986538	     -6.29552753	     -0.12438637	    -10.46262537	     -8.87639667	    -14.61639169	     12.75596721	     11.94638549	     86.51662706	      0.00000000	      0.00000000	      1.43879067	    -16.88535463	     18.89596167	     27.66780206	     85.94366927	      0.00000000	      0.00000000
      3.79000000	     -0.03116773	      1.43093936	      7.85709332	     -0.07045344	      0.89538234	     -0.22944465	     27.80472074	     -1.34464768	    -11.20085444	    -15.99921761	     -1.11429373	     -4.88320726	     13.43192533	    -16.26325007	      1.12302612	      6.32779635	    -20.48124272	      7.96260849	      9.98150214	     37.13814482	     -5.98650220	      0.24386684	    -10.49205560	     -9.04522439	    -14.65702391	     13.16540549	     11.72364062	     86.51662706	      0.00000000	      0.00000000	      1.00399085	    -16.68947065	     18.97302113	     27.17178055	     85.94366927	      0.00000000	      0.00000000
      3.80000000	      0.00813396	      1.05060022	      7.88710948	     -0.05484068	      0.89391431	     -0.22866598	     27.65122196	     -0.73665718	    -10.72731905	    -17.19636115	     -2.71071343	     -6.65743291	     13.10680945	    -16.28897614	      0.44317149	      5.65162136	    -21.94074559	      6.28233692	     10.51750125	     41.82868916	     -5.62765135	      0.73094446	    -10.43452980	     -9.23104906	    -14.72340443	     13.52810279	     11.55017848	     86.51662706	      0.00000000	      0.00000000	      0.54803711	    -16.45839459	     19.01821278	     26.65353023	     85.94366927	      0.00000000	      0.00000000
      3.81000000	      0.04420637	      0.54920766	      7.85975914	     -0.03926166	      0.89273750	     -0.22768297	     27.58232249	     -0.00703956	    -10.22018417	    -18.39461899	     -4.44187488	     -8.27417353	     12.77386878	    -16.14116508	     -0.34471863	      4.91156035	    -23.58048616	      4.23403266	     10.96350802	     46.29826452	     -5.24525770	      1.34782464	    -10.28459425	     -9.40969865	    -14.81524158	     13.84005656	     11.41998983	     86.51662706	      0.00000000	      0.00000000	      0.09197162	    -16.19068605	     19.03618248	     26.10818491	     85.94366927	      0.00000000	      0.00000000
      3.82000000	      0.07956314	     -0.07073956	      7.77617501	     -0.02385389	      0.89204194	     -0.22655621	     27.58826360	      0.83612272	     -9.68046405	    -19.65709279	     -6.11645382	     -9.66232021	     12.44361127	    -15.80223962	     -1.22925922	      4.14424639	    -25.41825982	      1.77317010	     11.28031044	     50.32336002	     -4.86572541	      2.08930674	    -10.04764893	     -9.55634971	    -14.93261152	     14.09878688	     11.32924142	     86.51662706	      0.00000000	      0.00000000	     -0.34970485	    -15.88881408	     19.03403787	     25.53364528	     85.94366927	      0.00000000	      0.00000000
      3.83000000	      0.11571577	     -0.78513690	      7.63913300	     -0.00864735	      0.89181860	     -0.22540226	     27.64034040	      1.78142135	     -9.12066318	    -21.02015914	     -7.53912585	    -10.78357559	     12.12125166	    -15.26406085	     -2.18278048	      3.39640026	    -27.46584832	     -1.10778664	     11.43038596	     53.68924508	     -4.51177306	      2.93211537	     -9.73837275	     -9.64971312	    -15.07505927	     14.30286117	     11.27748735	     86.51662706	      0.00000000	      0.00000000	     -0.76951900	    -15.55942812	     19.02174437	     24.93086733	     85.94366927	      0.00000000	      0.00000000
      3.84000000	      0.15617757	     -1.55587312	      7.45234333	      0.00637898	      0.89188048	     -0.22427737	     27.70090685	      2.80737607	     -8.56948016	    -22.46163441	     -8.54772020	    -11.62740977	     11.80500582	    -14.52980914	     -3.16789624	      2.72056665	    -29.72836910	     -4.36269790	     11.38143342	     56.21082936	     -4.20100452	      3.83902130	     -9.37759308	     -9.67495705	    -15.24050643	     14.45155224	     11.26826384	     86.51662706	      0.00000000	      0.00000000	     -1.16511705	    -15.21254708	     19.01217690	     24.30362385	     85.94366927	      0.00000000	      0.00000000
